# xmcd CD database file
#
# Track frame offsets:
#	150
#	19597
#	36415
#	53617
#	70937
#	89145
#	104825
#	119415
#	131745
#	147850
#	162947
#	180175
#	202237
#	213185
#	231265
#	245625
#
# Disc length: 3505 seconds
#
# Revision: 0
# Processed by: cddbd v1.5.2PL0 Copyright (c) Steve Scherf et al.
# Submitted via: CDex 1.70beta2
#
DISCID=f00daf10
DTITLE=Various Artist - 209 - Sentimental Panflute
DYEAR=1993
DGENRE=Panflöte
TTITLE0=Lonesome Shepherd
TTITLE1=Do that One More Time
TTITLE2=The rose
TTITLE3=Feelings
TTITLE4=Lady
TTITLE5=Russian Folk Song
TTITLE6=here Comees The Sun
TTITLE7=Guantanamera
TTITLE8=Dolanes Melodie
TTITLE9=Plaisir D' Amour
TTITLE10=Wenn der Tag erwacht
TTITLE11=Aranjuez
TTITLE12=Concerto D' Amour
TTITLE13=McArthur Park
TTITLE14=Dreaming
TTITLE15=Barcarole
EXTD=YEAR: 1993
EXTT0=
EXTT1=
EXTT2=
EXTT3=
EXTT4=
EXTT5=
EXTT6=
EXTT7=
EXTT8=
EXTT9=
EXTT10=
EXTT11=
EXTT12=
EXTT13=
EXTT14=
EXTT15=
PLAYORDER=
